<svg width="91" height="90" viewBox="0 0 91 90" fill="none" xmlns="http://www.w3.org/2000/svg">
<path d="M40.6292 51.75L32.5667 43.6875C31.8792 43 31.0042 42.6563 29.9417 42.6563C28.8792 42.6563 28.0042 43 27.3167 43.6875C26.6292 44.375 26.2854 45.25 26.2854 46.3125C26.2854 47.375 26.6292 48.25 27.3167 48.9375L38.0042 59.625C38.7542 60.375 39.6292 60.75 40.6292 60.75C41.6292 60.75 42.5042 60.375 43.2542 59.625L64.4417 38.4375C65.1292 37.75 65.4729 36.875 65.4729 35.8125C65.4729 34.75 65.1292 33.875 64.4417 33.1875C63.7542 32.5 62.8792 32.1563 61.8167 32.1563C60.7542 32.1563 59.8792 32.5 59.1917 33.1875L40.6292 51.75ZM45.8792 82.5C40.6917 82.5 35.8167 81.5156 31.2542 79.5469C26.6917 77.5781 22.7229 74.9063 19.3479 71.5313C15.9729 68.1563 13.301 64.1875 11.3323 59.625C9.36353 55.0625 8.37915 50.1875 8.37915 45C8.37915 39.8125 9.36353 34.9375 11.3323 30.375C13.301 25.8125 15.9729 21.8438 19.3479 18.4688C22.7229 15.0938 26.6917 12.4219 31.2542 10.4531C35.8167 8.48438 40.6917 7.5 45.8792 7.5C51.0667 7.5 55.9417 8.48438 60.5042 10.4531C65.0667 12.4219 69.0354 15.0938 72.4104 18.4688C75.7854 21.8438 78.4573 25.8125 80.426 30.375C82.3948 34.9375 83.3792 39.8125 83.3792 45C83.3792 50.1875 82.3948 55.0625 80.426 59.625C78.4573 64.1875 75.7854 68.1563 72.4104 71.5313C69.0354 74.9063 65.0667 77.5781 60.5042 79.5469C55.9417 81.5156 51.0667 82.5 45.8792 82.5Z" fill="#547288"/>
</svg>
