<svg width="24" height="24" viewBox="0 0 24 24" fill="none" xmlns="http://www.w3.org/2000/svg">
<path d="M11.4 12L15.3 8.09999C15.4833 7.91665 15.575 7.68332 15.575 7.39999C15.575 7.11665 15.4833 6.88332 15.3 6.69999C15.1166 6.51665 14.8833 6.42499 14.6 6.42499C14.3166 6.42499 14.0833 6.51665 13.9 6.69999L9.29995 11.3C9.19995 11.4 9.12912 11.5083 9.08745 11.625C9.04578 11.7417 9.02495 11.8667 9.02495 12C9.02495 12.1333 9.04578 12.2583 9.08745 12.375C9.12912 12.4917 9.19995 12.6 9.29995 12.7L13.9 17.3C14.0833 17.4833 14.3166 17.575 14.6 17.575C14.8833 17.575 15.1166 17.4833 15.3 17.3C15.4833 17.1167 15.575 16.8833 15.575 16.6C15.575 16.3167 15.4833 16.0833 15.3 15.9L11.4 12Z" fill="#B5BCBF"/>
</svg>
