<svg width="430" height="932" viewBox="0 0 430 932" fill="none" xmlns="http://www.w3.org/2000/svg">
<g clip-path="url(#clip0_78_117)">
<rect width="430" height="932" fill="#FAFAFA"/>
<path d="M-19 0H104V15C104 48.1371 77.1371 75 44 75H41C7.86292 75 -19 48.1371 -19 15V0Z" fill="#E2F3FF"/>
<path d="M96 0H219V15C219 48.1371 192.137 75 159 75H156C122.863 75 96 48.1371 96 15V0Z" fill="#E2F3FF"/>
<path d="M211 0H334V15C334 48.1371 307.137 75 274 75H271C237.863 75 211 48.1371 211 15V0Z" fill="#E2F3FF"/>
<path d="M326 0H449V15C449 48.1371 422.137 75 389 75H386C352.863 75 326 48.1371 326 15V0Z" fill="#E2F3FF"/>
<path d="M-10 932H113V917C113 883.863 86.1371 857 53 857H50C16.8629 857 -10 883.863 -10 917V932Z" fill="#E2F3FF"/>
<path d="M105 932H228V917C228 883.863 201.137 857 168 857H165C131.863 857 105 883.863 105 917V932Z" fill="#E2F3FF"/>
<path d="M220 932H343V917C343 883.863 316.137 857 283 857H280C246.863 857 220 883.863 220 917V932Z" fill="#E2F3FF"/>
<path d="M335 932H458V917C458 883.863 431.137 857 398 857H395C361.863 857 335 883.863 335 917V932Z" fill="#E2F3FF"/>
<path d="M36.7702 740.582C59.5776 752.313 72.882 742.28 77 735.905C61.0348 722.135 43.4224 729.426 36.4534 734.845C30.118 729.489 26.9503 730.701 26 731.019C26.3168 732.613 28.6398 736.651 30.4348 738.032C27.1404 739.817 26.1056 743.239 26 744.407C28.2174 745.682 33.9193 743.451 36.7702 740.582Z" fill="#E2F3FF"/>
<path d="M127.77 166.582C150.578 178.313 163.882 168.28 168 161.905C152.035 148.135 134.422 155.426 127.453 160.845C121.118 155.489 117.95 156.701 117 157.019C117.317 158.613 119.64 162.651 121.435 164.032C118.14 165.817 117.106 169.239 117 170.407C119.217 171.682 124.919 169.451 127.77 166.582Z" fill="#E2F3FF"/>
<path d="M327.77 791.582C350.578 803.313 363.882 793.28 368 786.905C352.035 773.135 334.422 780.426 327.453 785.845C321.118 780.489 317.95 781.701 317 782.019C317.317 783.613 319.64 787.651 321.435 789.032C318.14 790.817 317.106 794.239 317 795.407C319.217 796.682 324.919 794.451 327.77 791.582Z" fill="#E2F3FF"/>
<path d="M357.23 280.418C334.422 268.687 321.118 278.72 317 285.095C332.965 298.865 350.578 291.574 357.547 286.155C363.882 291.511 367.05 290.299 368 289.981C367.683 288.387 365.36 284.349 363.565 282.968C366.86 281.183 367.894 277.761 368 276.593C365.783 275.318 360.081 277.549 357.23 280.418Z" fill="#E2F3FF"/>
<path d="M386.23 188.418C363.422 176.687 350.118 186.72 346 193.095C361.965 206.865 379.578 199.574 386.547 194.155C392.882 199.511 396.05 198.299 397 197.981C396.683 196.387 394.36 192.349 392.565 190.968C395.86 189.183 396.894 185.761 397 184.593C394.783 183.318 389.081 185.549 386.23 188.418Z" fill="#E2F3FF"/>
<path d="M255.23 699.418C232.422 687.687 219.118 697.72 215 704.095C230.965 717.865 248.578 710.574 255.547 705.155C261.882 710.511 265.05 709.299 266 708.981C265.683 707.387 263.36 703.349 261.565 701.968C264.86 700.183 265.894 696.761 266 695.593C263.783 694.318 258.081 696.549 255.23 699.418Z" fill="#E2F3FF"/>
<path d="M83.2298 206.418C60.4224 194.687 47.118 204.72 43 211.095C58.9652 224.865 76.5776 217.574 83.5466 212.155C89.882 217.511 93.0497 216.299 94 215.981C93.6832 214.387 91.3602 210.349 89.5652 208.968C92.8596 207.183 93.8944 203.761 94 202.593C91.7826 201.318 86.0807 203.549 83.2298 206.418Z" fill="#E2F3FF"/>
</g>
<defs>
<clipPath id="clip0_78_117">
<rect width="430" height="932" fill="white"/>
</clipPath>
</defs>
</svg>
