<svg width="50" height="50" viewBox="0 0 50 50" fill="none" xmlns="http://www.w3.org/2000/svg">
<path d="M23.5416 17.2917L19.2187 12.9167C18.802 12.5 18.5937 12.0139 18.5937 11.4583C18.5937 10.9028 18.802 10.4167 19.2187 10L23.5484 5.625C23.9605 5.20833 24.4506 5 25.0187 5C25.5871 5 26.0843 5.20833 26.5103 5.625L30.8333 10C31.2499 10.4167 31.4583 10.9028 31.4583 11.4583C31.4583 12.0139 31.2499 12.5 30.8333 12.9167L26.5041 17.2917C26.0916 17.7083 25.6013 17.9167 25.0333 17.9167C24.4648 17.9167 23.9676 17.7083 23.5416 17.2917ZM4.16659 41.6667C3.57631 41.6667 3.08152 41.467 2.68221 41.0677C2.2829 40.6684 2.08325 40.1736 2.08325 39.5833V33.3333C2.08325 32.1528 2.49124 31.1632 3.30721 30.3646C4.12318 29.566 5.10409 29.1667 6.24992 29.1667H13.0728C13.7673 29.1667 14.427 29.3403 15.052 29.6875C15.677 30.0347 16.1805 30.5035 16.5624 31.0938C17.5694 32.4479 18.8107 33.5069 20.2864 34.2708C21.7621 35.0347 23.3333 35.4167 24.9999 35.4167C26.7013 35.4167 28.2898 35.0347 29.7655 34.2708C31.2412 33.5069 32.4652 32.4479 33.4374 31.0938C33.8888 30.5035 34.4183 30.0347 35.026 29.6875C35.6336 29.3403 36.2673 29.1667 36.927 29.1667H43.7499C44.9305 29.1667 45.9201 29.566 46.7187 30.3646C47.5173 31.1632 47.9166 32.1528 47.9166 33.3333V39.5833C47.9166 40.1736 47.7169 40.6684 47.3176 41.0677C46.9183 41.467 46.4235 41.6667 45.8333 41.6667H35.4166C34.8263 41.6667 34.3315 41.467 33.9322 41.0677C33.5329 40.6684 33.3333 40.1736 33.3333 39.5833V36.9271C32.118 37.7951 30.8072 38.4549 29.401 38.9062C27.9947 39.3576 26.5277 39.5833 24.9999 39.5833C23.5069 39.5833 22.0485 39.349 20.6249 38.8802C19.2013 38.4115 17.8819 37.7431 16.6666 36.875V39.5833C16.6666 40.1736 16.4669 40.6684 16.0676 41.0677C15.6683 41.467 15.1735 41.6667 14.5833 41.6667H4.16659ZM8.33325 27.0833C6.59714 27.0833 5.12145 26.4757 3.90617 25.2604C2.69089 24.0451 2.08325 22.5694 2.08325 20.8333C2.08325 19.0625 2.69089 17.5781 3.90617 16.3802C5.12145 15.1823 6.59714 14.5833 8.33325 14.5833C10.1041 14.5833 11.5885 15.1823 12.7864 16.3802C13.9843 17.5781 14.5833 19.0625 14.5833 20.8333C14.5833 22.5694 13.9843 24.0451 12.7864 25.2604C11.5885 26.4757 10.1041 27.0833 8.33325 27.0833ZM41.6666 27.0833C39.9305 27.0833 38.4548 26.4757 37.2395 25.2604C36.0242 24.0451 35.4166 22.5694 35.4166 20.8333C35.4166 19.0625 36.0242 17.5781 37.2395 16.3802C38.4548 15.1823 39.9305 14.5833 41.6666 14.5833C43.4374 14.5833 44.9218 15.1823 46.1197 16.3802C47.3176 17.5781 47.9166 19.0625 47.9166 20.8333C47.9166 22.5694 47.3176 24.0451 46.1197 25.2604C44.9218 26.4757 43.4374 27.0833 41.6666 27.0833Z" fill="#547288"/>
</svg>
